# xmcd
#
# Track frame offsets:
#	150
#	14387
#	27237
#	41477
#	53537
#	65242
#	74827
#	84112
#	99670
#	112200
#	127200
#	137942
#	152612
#	161855
#
# Disc length: 2338 seconds
#
# Revision: 0
# Processed by: cddbd v1.5.2PL0 Copyright (c) Steve Scherf et al.
# Submitted via: EasyCDDAExtractor 2011.0.0.0
#
DISCID=cc09200e
DTITLE=The Starlight Orchestra - True Grit and other Great Western Themes 
DYEAR=1997
DGENRE=Country
TTITLE0=True Grit
TTITLE1=The Magnificent Seven
TTITLE2=Ballad Of The Alamo
TTITLE3=How The West Won
TTITLE4=The Man From Laramie
TTITLE5=Hang ´em High
TTITLE6=Rawhide
TTITLE7=The Big Country
TTITLE8=High Noon
TTITLE9=Once Upon A Time In The West
TTITLE10=Bonanza
TTITLE11=Wand´rin´ Star
TTITLE12=A Fistful Of Dollars
TTITLE13=The Good The Bad And The Ugly
EXTD=
EXTT0=
EXTT1=
EXTT2=
EXTT3=
EXTT4=
EXTT5=
EXTT6=
EXTT7=
EXTT8=
EXTT9=
EXTT10=
EXTT11=
EXTT12=
EXTT13=
PLAYORDER=
